<?xml version="1.0" standalone="no"?><!DOCTYPE svg PUBLIC "-//W3C//DTD SVG 1.1//EN" "http://www.w3.org/Graphics/SVG/1.1/DTD/svg11.dtd"><svg t="1576736919735" class="icon" viewBox="0 0 1052 1024" version="1.1" xmlns="http://www.w3.org/2000/svg" p-id="1201" xmlns:xlink="http://www.w3.org/1999/xlink" width="205.46875" height="200"><defs><style type="text/css"></style></defs><path d="M899.459459 1024 417.902703 1024c-16.605405 0-27.675676-11.07027-27.675676-27.675676s11.07027-27.675676 27.675676-27.675676L899.459459 968.648649c44.281081 0 83.027027-35.978378 83.027027-83.027027L982.486486 467.718919c0-16.605405 11.07027-27.675676 27.675676-27.675676s27.675676 11.07027 27.675676 27.675676L1037.837838 885.621622C1037.837838 963.113514 976.951351 1024 899.459459 1024z" p-id="1202"></path><path d="M531.372973 243.545946c13.837838 0 24.908108 5.535135 30.443243 13.837838 52.583784 74.724324 141.145946 135.610811 210.335135 168.821622 13.837838 5.535135 19.372973 16.605405 19.372973 24.908108 0 2.767568 0 5.535135-2.767568 8.302703-2.767568 8.302703-11.07027 13.837838-19.372973 13.837838-5.535135 0-11.07027-2.767568-19.372973-5.535135-71.956757-35.978378-163.286486-102.4-213.102703-174.356757-2.767568-2.767568-2.767568-5.535135-5.535135-5.535135s-5.535135 2.767568-5.535135 5.535135c-49.816216 71.956757-130.075676 141.145946-215.87027 185.427027-2.767568 2.767568-8.302703 2.767568-13.837838 2.767568-8.302703 0-16.605405-2.767568-19.372973-13.837838-2.767568-2.767568-2.767568-8.302703-2.767568-11.07027 0-8.302703 5.535135-16.605405 13.837838-19.372973 83.027027-41.513514 163.286486-110.702703 213.102703-179.891892C506.464865 246.313514 520.302703 243.545946 531.372973 243.545946zM769.383784 691.891892c8.302703 0 13.837838 8.302703 13.837838 19.372973 0 11.07027-5.535135 22.140541-13.837838 22.140541L296.12973 733.405405c-8.302703 0-13.837838-8.302703-13.837838-22.140541 0-11.07027 5.535135-19.372973 13.837838-19.372973l85.794595 0L381.924324 498.162162c0-11.07027 8.302703-16.605405 22.140541-16.605405 11.07027 0 22.140541 5.535135 22.140541 16.605405L426.205405 691.891892l99.632432 0L525.837838 404.064865c0-11.07027 8.302703-16.605405 22.140541-16.605405 13.837838 0 22.140541 5.535135 22.140541 16.605405l0 107.935135 143.913514 0c11.07027 0 16.605405 8.302703 16.605405 19.372973 0 11.07027-5.535135 22.140541-16.605405 22.140541L567.351351 553.513514l0 138.378378L769.383784 691.891892z" p-id="1203"></path><path d="M41.513514 583.956757c-16.605405 0-27.675676-11.07027-27.675676-27.675676L13.837838 138.378378c0-74.724324 60.886486-138.378378 138.378378-138.378378l481.556757 0c16.605405 0 27.675676 11.07027 27.675676 27.675676s-11.07027 27.675676-27.675676 27.675676L152.216216 55.351351C105.167568 55.351351 69.189189 91.32973 69.189189 138.378378l0 420.67027C69.189189 572.886486 58.118919 583.956757 41.513514 583.956757z" p-id="1204"></path></svg>