<?xml version="1.0" standalone="no"?><!DOCTYPE svg PUBLIC "-//W3C//DTD SVG 1.1//EN" "http://www.w3.org/Graphics/SVG/1.1/DTD/svg11.dtd"><svg t="1576819136122" class="icon" viewBox="0 0 1024 1024" version="1.1" xmlns="http://www.w3.org/2000/svg" p-id="2639" xmlns:xlink="http://www.w3.org/1999/xlink" width="200" height="200"><defs><style type="text/css"></style></defs><path d="M264.441 249.067 264.441 249.067 264.441 249.067 264.441 249.067zM208.324 291.99c34.522 0 62.515-34.382 62.515-76.801l0-86.282c0-42.418-27.99-76.801-62.515-76.801s-62.509 34.389-62.509 76.801l0 86.281C145.815 257.606 173.801 291.99 208.324 291.99L208.324 291.99zM1020.967 209.543c-2.809-70.298-67.824-65.654-67.824-65.654l-2.295 0L918.58 143.889l-2.731 0 0 122.039c0 0-0.847 53.547-52.802 53.66-3.262 0.006-6.532 0.011-9.79 0.015-16.839-0.028-46.96-0.062-80.451 0.006-7.765-0.011-12.919-0.022-14.399-0.022-52.886-1.718-50.43-52.268-50.43-52.268l0-123.43-3.141 0L316.641 143.889l-3.146 0 0 123.43c0 0 2.461 50.552-50.43 52.268-1.476 0-6.634 0.011-14.399 0.022-33.491-0.071-63.612-0.039-80.449-0.006-3.259-0.005-6.527-0.011-9.786-0.015-51.955-0.112-52.809-53.66-52.809-53.66L105.622 143.888l-2.731 0-32.27 0-2.292 0c0 0-65.015-4.641-67.819 65.654C0.094 212.39 0 214.077 0 214.077S0.106 863.722 0.106 892.51c0 69.762 70.695 70.408 70.695 70.408l879.875 0c0 0 70.689-0.644 70.689-70.408 0-28.788 0.106-678.433 0.106-678.433S1021.378 212.391 1020.967 209.543L1020.967 209.543zM512.127 819.905c0 53.322-102.071 65.44-197.885 65.44-95.673 0-199.052-12.115-199.052-65.44l0-14.663c0-39.134 70.549-78.774 130.69-100.524 4.345-1.592 25.108-12.895 13.502-43.353-29.79-30.419-52.296-79.709-52.296-128.223 0-74.31 49.135-113.247 106.59-113.247 57.422 0 106.844 38.937 106.844 113.247 0 48.316-22.636 97.413-52.247 127.906l0.155 0c-11.359 34.539 6.823 42.737 9.699 43.673 63.096 20.886 133.998 60.209 133.998 100.524l0 14.66L512.127 819.905zM862.658 795.429 639.484 795.429c-26.471 0-47.93-21.454-47.93-47.925s21.46-47.93 47.93-47.93l223.175 0c26.471 0 47.93 21.46 47.93 47.93C910.587 773.972 889.127 795.429 862.658 795.429L862.658 795.429zM862.658 605.663 639.484 605.663c-26.471 0-47.93-21.46-47.93-47.93 0-26.471 21.46-47.925 47.93-47.925l223.175 0c26.471 0 47.93 21.458 47.93 47.925C910.585 584.203 889.127 605.663 862.658 605.663L862.658 605.663zM813.454 291.99c34.522 0 62.509-34.382 62.509-76.801l0-86.282c0-42.418-30.335-76.801-64.857-76.801-34.526 0-60.164 34.388-60.164 76.801l0 86.281C750.939 257.606 778.932 291.99 813.454 291.99L813.454 291.99z" p-id="2640"></path></svg>