<?xml version="1.0" standalone="no"?><!DOCTYPE svg PUBLIC "-//W3C//DTD SVG 1.1//EN" "http://www.w3.org/Graphics/SVG/1.1/DTD/svg11.dtd"><svg t="1649826408205" class="icon" viewBox="0 0 1024 1024" version="1.1" xmlns="http://www.w3.org/2000/svg" p-id="5961" xmlns:xlink="http://www.w3.org/1999/xlink" width="60" height="60"><defs><style type="text/css"></style></defs><path d="M647.09 484.58c51.05-40.1 83.98-102.22 83.98-172.02 0-120.66-98.11-218.82-218.72-218.82s-218.71 98.15-218.71 218.82c0 69.8 32.96 131.92 83.98 172.02-134.42 53.75-229.79 185.13-229.79 338.56v72.94c0 20.16 16.3 36.47 36.45 36.47h656.16c20.15 0 36.45-16.31 36.45-36.47v-72.94c0-153.47-95.34-284.81-229.8-338.56z m-134.74-317.9c80.41 0 145.81 65.43 145.81 145.88 0 80.46-65.4 145.89-145.81 145.89s-145.81-65.42-145.81-145.89c-0.01-80.46 65.39-145.88 145.81-145.88z m291.62 692.94H220.72v-36.48c0-160.87 130.82-291.76 291.66-291.76 160.8 0 291.59 130.89 291.59 291.76v36.48z m0 0" p-id="5962"></path><path d="M268.32 497.26c1-2.21 1-4.55 1.5-6.84 0.35-1.39 0.75-2.7 0.93-4.16 0.28-2.89 0.11-5.63-0.29-8.44-0.14-1.5 0.21-2.92-0.14-4.42-0.21-0.86-0.82-1.46-1.07-2.32-0.56-1.64-1.35-3.1-2.13-4.62-1.5-3.14-3.14-5.98-5.38-8.51-0.32-0.36-0.71-0.61-1.07-0.97-3.31-3.46-7.12-6.09-11.46-7.98-39.45-17.59-64.94-56.78-64.94-99.94 0-50.79 34.39-94.52 83.65-106.38 19.58-4.74 31.61-24.43 26.92-44.03-4.77-19.59-24.53-31.48-44.01-26.93-82.12 19.81-139.47 92.75-139.47 177.34 0 46.16 17.55 89.43 47.38 122.33C63.87 520.58 2 618.95 2 730.26v56.41c0 20.16 16.3 36.48 36.45 36.48 20.15 0 36.46-16.31 36.46-36.48v-56.41c0-100.87 67.78-187.41 165.04-211.92 12.1-1.71 23.09-9.08 28.37-21.08z m0 0M865.81 471.4c29.83-32.91 47.38-76.18 47.38-122.34 0-82.38-55.46-154.82-134.88-176.16-19.4-5.2-39.41 6.31-44.68 25.75-5.23 19.48 6.3 39.46 25.75 44.7 47.63 12.78 80.91 56.28 80.91 105.71 0 43.16-25.45 82.27-64.86 99.9-4.41 1.92-8.29 4.59-11.64 8.08-0.29 0.32-0.65 0.54-0.93 0.86-2.28 2.53-3.91 5.45-5.45 8.62-0.74 1.53-1.56 2.95-2.1 4.56-0.25 0.82-0.86 1.46-1.07 2.31-0.36 1.49 0 2.92-0.15 4.42-0.38 2.82-0.56 5.56-0.28 8.44 0.18 1.46 0.58 2.77 0.93 4.16 0.5 2.28 0.5 4.63 1.49 6.84 5.28 12 16.28 19.38 28.37 21.08 97.25 24.51 165.04 111.05 165.04 211.92v56.42c0 20.16 16.3 36.46 36.45 36.46 20.15 0 36.45-16.31 36.45-36.46v-56.42c0.01-111.29-61.86-209.67-156.73-258.85z m0 0" p-id="5963"></path></svg>